<mxfile host="Electron" agent="Mozilla/5.0 (Macintosh; Intel Mac OS X 10_15_7) AppleWebKit/537.36 (KHTML, like Gecko) draw.io/26.0.16 Chrome/132.0.6834.196 Electron/34.2.0 Safari/537.36" version="26.0.16">
  <diagram name="Page-1" id="OGSiOVbz9XrPtG6TtMfC">
    <mxGraphModel dx="1114" dy="674" grid="1" gridSize="10" guides="1" tooltips="1" connect="1" arrows="1" fold="1" page="1" pageScale="1" pageWidth="827" pageHeight="1169" math="0" shadow="0">
      <root>
        <mxCell id="0" />
        <mxCell id="1" parent="0" />
        <mxCell id="Tohpp7N2i6BsjjVc_knj-2" value="Обслуживание депозитных процессов" style="rounded=0;whiteSpace=wrap;html=1;labelBackgroundColor=none;fontStyle=1;fillColor=#E6E6E6;" parent="1" vertex="1">
          <mxGeometry x="430" y="190" width="120" height="60" as="geometry" />
        </mxCell>
        <mxCell id="Tohpp7N2i6BsjjVc_knj-3" value="Обслуживание кредитных процессов" style="rounded=0;whiteSpace=wrap;html=1;labelBackgroundColor=none;fontStyle=1;fillColor=#E6E6E6;" parent="1" vertex="1">
          <mxGeometry x="550" y="190" width="120" height="60" as="geometry" />
        </mxCell>
        <mxCell id="Tohpp7N2i6BsjjVc_knj-4" value="Управление договорами" style="rounded=0;whiteSpace=wrap;html=1;labelBackgroundColor=none;fontStyle=1;fillColor=#E6E6E6;" parent="1" vertex="1">
          <mxGeometry x="670" y="190" width="120" height="60" as="geometry" />
        </mxCell>
        <mxCell id="Tohpp7N2i6BsjjVc_knj-6" value="Продажи в сети отделений" style="rounded=0;whiteSpace=wrap;html=1;labelBackgroundColor=none;fontStyle=1;fillColor=#E6E6E6;" parent="1" vertex="1">
          <mxGeometry x="70" y="190" width="120" height="60" as="geometry" />
        </mxCell>
        <mxCell id="Tohpp7N2i6BsjjVc_knj-7" value="Продажи через колл-центр" style="rounded=0;whiteSpace=wrap;html=1;labelBackgroundColor=none;fontStyle=1;fillColor=#E6E6E6;" parent="1" vertex="1">
          <mxGeometry x="190" y="190" width="120" height="60" as="geometry" />
        </mxCell>
        <mxCell id="Tohpp7N2i6BsjjVc_knj-8" value="Digital-оповещения клиентов" style="rounded=0;whiteSpace=wrap;html=1;labelBackgroundColor=none;fontStyle=1;fillColor=#E6E6E6;" parent="1" vertex="1">
          <mxGeometry x="310" y="190" width="120" height="60" as="geometry" />
        </mxCell>
        <mxCell id="Tohpp7N2i6BsjjVc_knj-9" value="&lt;div style=&quot;&quot;&gt;&lt;pre style=&quot;font-family:&#39;JetBrains Mono&#39;,monospace;font-size:9.8pt;&quot;&gt;Отдел &lt;/pre&gt;&lt;pre style=&quot;font-family:&#39;JetBrains Mono&#39;,monospace;font-size:9.8pt;&quot;&gt;кредитования&lt;/pre&gt;&lt;/div&gt;" style="rounded=0;whiteSpace=wrap;html=1;rotation=-90;labelBackgroundColor=none;fontColor=default;fillColor=#E6E6E6;" parent="1" vertex="1">
          <mxGeometry x="-20" y="280" width="120" height="60" as="geometry" />
        </mxCell>
        <mxCell id="Tohpp7N2i6BsjjVc_knj-10" value="&lt;div style=&quot;&quot;&gt;&lt;pre style=&quot;font-family:&#39;JetBrains Mono&#39;,monospace;font-size:9.8pt;&quot;&gt;Фронт-офис&lt;/pre&gt;&lt;/div&gt;" style="rounded=0;whiteSpace=wrap;html=1;rotation=-90;labelBackgroundColor=none;fontColor=default;fillColor=#E6E6E6;" parent="1" vertex="1">
          <mxGeometry x="-20" y="400" width="120" height="60" as="geometry" />
        </mxCell>
        <mxCell id="Tohpp7N2i6BsjjVc_knj-11" value="&lt;div style=&quot;&quot;&gt;&lt;pre style=&quot;font-family:&#39;JetBrains Mono&#39;,monospace;font-size:9.8pt;&quot;&gt;Бэк-офис&lt;/pre&gt;&lt;/div&gt;" style="rounded=0;whiteSpace=wrap;html=1;rotation=-90;labelBackgroundColor=none;fontColor=default;fillColor=#E6E6E6;" parent="1" vertex="1">
          <mxGeometry x="-20" y="520" width="120" height="60" as="geometry" />
        </mxCell>
        <mxCell id="Tohpp7N2i6BsjjVc_knj-12" value="&lt;div style=&quot;&quot;&gt;&lt;pre style=&quot;font-family:&#39;JetBrains Mono&#39;,monospace;font-size:9.8pt;&quot;&gt;Колл-центр&lt;/pre&gt;&lt;/div&gt;" style="rounded=0;whiteSpace=wrap;html=1;rotation=-90;labelBackgroundColor=none;fontColor=default;fillColor=#E6E6E6;" parent="1" vertex="1">
          <mxGeometry x="-20" y="640" width="120" height="60" as="geometry" />
        </mxCell>
        <mxCell id="Tohpp7N2i6BsjjVc_knj-15" value="АБС" style="rounded=0;whiteSpace=wrap;html=1;fillColor=#dae8fc;strokeColor=#6c8ebf;" parent="1" vertex="1">
          <mxGeometry x="80" y="395" width="80" height="60" as="geometry" />
        </mxCell>
        <mxCell id="Tohpp7N2i6BsjjVc_knj-16" value="АБС" style="rounded=0;whiteSpace=wrap;html=1;fillColor=#dae8fc;strokeColor=#6c8ebf;" parent="1" vertex="1">
          <mxGeometry x="697" y="400" width="80" height="60" as="geometry" />
        </mxCell>
        <mxCell id="Tohpp7N2i6BsjjVc_knj-18" value="Excel-файл" style="rounded=0;whiteSpace=wrap;html=1;fillColor=#d5e8d4;strokeColor=#82b366;" parent="1" vertex="1">
          <mxGeometry x="450" y="430" width="80" height="160" as="geometry" />
        </mxCell>
        <mxCell id="Tohpp7N2i6BsjjVc_knj-21" value="Excel-файл" style="rounded=0;whiteSpace=wrap;html=1;fillColor=#d5e8d4;strokeColor=#82b366;" parent="1" vertex="1">
          <mxGeometry x="570" y="265" width="80" height="60" as="geometry" />
        </mxCell>
        <mxCell id="Tohpp7N2i6BsjjVc_knj-22" value="Система колл-центра" style="rounded=0;whiteSpace=wrap;html=1;fillColor=#f8cecc;strokeColor=#b85450;" parent="1" vertex="1">
          <mxGeometry x="204" y="640" width="80" height="60" as="geometry" />
        </mxCell>
        <mxCell id="Tohpp7N2i6BsjjVc_knj-23" value="АБС" style="rounded=0;whiteSpace=wrap;html=1;fillColor=#dae8fc;strokeColor=#6c8ebf;" parent="1" vertex="1">
          <mxGeometry x="204" y="520" width="80" height="60" as="geometry" />
        </mxCell>
        <mxCell id="Tohpp7N2i6BsjjVc_knj-25" value="АБС" style="rounded=0;whiteSpace=wrap;html=1;fillColor=#dae8fc;strokeColor=#6c8ebf;" parent="1" vertex="1">
          <mxGeometry x="330" y="520" width="80" height="30" as="geometry" />
        </mxCell>
        <mxCell id="Tohpp7N2i6BsjjVc_knj-26" style="edgeStyle=orthogonalEdgeStyle;rounded=0;orthogonalLoop=1;jettySize=auto;html=1;exitX=0.5;exitY=1;exitDx=0;exitDy=0;" parent="1" source="Tohpp7N2i6BsjjVc_knj-15" target="Tohpp7N2i6BsjjVc_knj-15" edge="1">
          <mxGeometry relative="1" as="geometry" />
        </mxCell>
        <mxCell id="Tohpp7N2i6BsjjVc_knj-27" value="E-mail" style="rounded=0;whiteSpace=wrap;html=1;fillColor=#e1d5e7;strokeColor=#9673a6;" parent="1" vertex="1">
          <mxGeometry x="80" y="764" width="80" height="60" as="geometry" />
        </mxCell>
        <mxCell id="Tohpp7N2i6BsjjVc_knj-28" value="&amp;nbsp;E-mail" style="rounded=0;whiteSpace=wrap;html=1;fillColor=#e1d5e7;strokeColor=#9673a6;" parent="1" vertex="1">
          <mxGeometry x="80" y="520" width="80" height="60" as="geometry" />
        </mxCell>
        <mxCell id="Tohpp7N2i6BsjjVc_knj-29" value="&lt;div style=&quot;&quot;&gt;&lt;pre style=&quot;font-family:&#39;JetBrains Mono&#39;,monospace;font-size:9.8pt;&quot;&gt;Отделение &lt;br&gt;банка&lt;/pre&gt;&lt;/div&gt;" style="rounded=0;whiteSpace=wrap;html=1;rotation=-90;labelBackgroundColor=none;fontColor=default;fillColor=#E6E6E6;" parent="1" vertex="1">
          <mxGeometry x="-20" y="760" width="120" height="60" as="geometry" />
        </mxCell>
        <mxCell id="Tohpp7N2i6BsjjVc_knj-30" value="Excel-файл" style="rounded=0;whiteSpace=wrap;html=1;fillColor=#d5e8d4;strokeColor=#82b366;" parent="1" vertex="1">
          <mxGeometry x="580" y="760" width="80" height="60" as="geometry" />
        </mxCell>
        <mxCell id="Tohpp7N2i6BsjjVc_knj-31" value="АБС" style="rounded=0;whiteSpace=wrap;html=1;fillColor=#dae8fc;strokeColor=#6c8ebf;" parent="1" vertex="1">
          <mxGeometry x="450" y="265" width="80" height="60" as="geometry" />
        </mxCell>
        <mxCell id="Tohpp7N2i6BsjjVc_knj-32" value="E-mail" style="rounded=0;whiteSpace=wrap;html=1;fillColor=#e1d5e7;strokeColor=#9673a6;" parent="1" vertex="1">
          <mxGeometry x="450" y="325" width="80" height="25" as="geometry" />
        </mxCell>
        <mxCell id="Tohpp7N2i6BsjjVc_knj-33" value="E-mail" style="rounded=0;whiteSpace=wrap;html=1;fillColor=#e1d5e7;strokeColor=#9673a6;" parent="1" vertex="1">
          <mxGeometry x="570" y="325" width="80" height="25" as="geometry" />
        </mxCell>
        <mxCell id="4DevCd0wr9Vn6SiSYG8o-1" value="Шлюз СМС" style="rounded=0;whiteSpace=wrap;html=1;fillColor=#dae8fc;strokeColor=#6c8ebf;" vertex="1" parent="1">
          <mxGeometry x="330" y="550" width="80" height="30" as="geometry" />
        </mxCell>
        <mxCell id="4DevCd0wr9Vn6SiSYG8o-2" value="Интернет-банк" style="rounded=0;whiteSpace=wrap;html=1;fillColor=#d5e8d4;strokeColor=#82b366;" vertex="1" parent="1">
          <mxGeometry x="450" y="390" width="80" height="40" as="geometry" />
        </mxCell>
      </root>
    </mxGraphModel>
  </diagram>
</mxfile>
